<svg width="156" height="156" viewBox="0 0 156 156" fill="none" xmlns="http://www.w3.org/2000/svg">
<path fill-rule="evenodd" clip-rule="evenodd" d="M78 150C117.765 150 150 117.765 150 78C150 38.2355 117.765 6 78 6C38.2355 6 6 38.2355 6 78C6 117.765 38.2355 150 78 150ZM78 156C121.078 156 156 121.078 156 78C156 34.9218 121.078 0 78 0C34.9218 0 0 34.9218 0 78C0 121.078 34.9218 156 78 156ZM79 41C80.6569 41 82 42.3431 82 44V51H86C90.5874 51 94.2366 52.7907 96.7013 55.6252C99.1139 58.3996 100.25 62.0033 100.25 65.5C100.25 68.9966 99.1139 72.6003 96.7013 75.3748C96.1507 76.008 95.541 76.5891 94.8749 77.1098C98.2451 79.9291 100.068 84.2601 100.247 88.3697C100.399 91.8642 99.4202 95.5241 96.9989 98.3559C94.523 101.251 90.7767 103 86 103H82V109C82 110.657 80.6569 112 79 112C77.3431 112 76 110.657 76 109V103H67.0068C67.0046 103 67.0023 103 67 103L62 103C60.3431 103 59 101.657 59 100C59 98.3431 60.3431 97 62 97H64V57H62C60.3431 57 59 55.6568 59 54C59 52.3431 60.3431 51 62 51H76V44C76 42.3431 77.3431 41 79 41ZM70 57V74H86C88.9126 74 90.8885 72.9157 92.1737 71.4377C93.5111 69.8996 94.25 67.7533 94.25 65.5C94.25 63.2466 93.5111 61.1003 92.1737 59.5623C90.8885 58.0842 88.9126 57 86 57H70ZM70 80V97H86C89.2233 97 91.227 95.8736 92.4387 94.4566C93.7048 92.9759 94.3509 90.8857 94.2528 88.6303C94.0517 84.0053 90.9537 80 86 80H70Z" fill="#878787"/>
</svg>
