<svg width="221" height="221" viewBox="0 0 221 221" fill="none" xmlns="http://www.w3.org/2000/svg">
<path d="M96.552 124.835C101.502 129.785 107.866 134.734 117.765 140.391C141.1 152.412 162.313 132.613 152.413 125.542C146.05 120.592 136.15 114.935 136.15 114.935C136.15 114.935 131.831 111.813 128.372 119.885C124.912 127.957 111.401 119.885 106.451 114.935L96.552 124.835Z" fill="white"/>
<path d="M96.5496 124.835C91.5996 119.885 86.6499 113.521 80.9932 103.621C68.9722 80.2868 88.7712 59.0736 95.8425 68.9733C100.792 75.3372 106.449 85.2367 106.449 85.2367C106.449 85.2367 109.571 89.5555 101.499 93.0149C93.4273 96.4744 101.499 109.985 106.449 114.935L96.5496 124.835Z" fill="white"/>
<path fill-rule="evenodd" clip-rule="evenodd" d="M161.22 59.3968C133.103 31.2791 87.5147 31.2791 59.3969 59.3968C31.2792 87.5146 31.2792 133.102 59.3969 161.22C87.5147 189.338 133.103 189.338 161.22 161.22C189.338 133.102 189.338 87.5146 161.22 59.3968ZM165.463 55.1542C135.002 24.6933 85.6152 24.6933 55.1543 55.1542C24.6934 85.6151 24.6934 135.002 55.1543 165.463C85.6152 195.924 135.002 195.924 165.463 165.463C195.924 135.002 195.924 85.6151 165.463 55.1542Z" fill="white"/>
</svg>
