<svg width="149" height="122" viewBox="0 0 149 122" fill="none" xmlns="http://www.w3.org/2000/svg">
<path fill-rule="evenodd" clip-rule="evenodd" d="M92.5909 3.45289C92.8406 1.81496 91.7153 0.284718 90.0773 0.0349937C88.4394 -0.21473 86.9092 0.910631 86.6595 2.54856L82.8435 27.5773C82.5938 29.2152 83.7191 30.7455 85.357 30.9952C86.995 31.2449 88.5252 30.1196 88.7749 28.4816L92.5909 3.45289ZM62.5257 0.0531524C64.1618 -0.208615 65.7003 0.905458 65.962 2.5415L69.962 27.5415C70.2238 29.1776 69.1097 30.716 67.4737 30.9778C65.8376 31.2396 64.2992 30.1255 64.0374 28.4895L60.0374 3.48945C59.7756 1.8534 60.8897 0.31492 62.5257 0.0531524ZM17.7641 37.2811C18.5076 36.9451 19.3559 36.9266 20.1134 37.2296L35.1134 43.2296C35.6073 43.4271 36.0305 43.7481 36.3501 44.1512L60.3501 46.9204L71.487 40.4239C71.5427 40.3914 71.5994 40.3607 71.657 40.3319C75.7707 38.275 79.4027 38.0029 82.8437 38.7375C85.6638 39.3396 88.3377 40.6358 90.771 41.8155C91.1166 41.983 91.4574 42.1482 91.793 42.3087C94.617 43.6594 97.4157 44.8724 100.745 45.3952C103.685 45.8569 107.167 45.7968 111.506 44.6227C111.834 43.9985 112.376 43.4991 113.05 43.2296L128.05 37.2296C128.807 36.9266 129.655 36.9451 130.399 37.2811C131.143 37.617 131.717 38.2412 131.99 39.01L147.99 84.01C148.264 84.7786 148.212 85.6254 147.848 86.3553C147.483 87.0852 146.837 87.6351 146.059 87.8784L130.059 92.8784C128.695 93.3045 127.22 92.7101 126.533 91.4575L129.164 90.015C126.533 91.4575 126.532 91.4554 126.532 91.4549L126.519 91.4303L126.479 91.3586C126.446 91.2963 126.396 91.2051 126.332 91.0865C126.267 90.9644 126.185 90.8134 126.09 90.6349L119.59 95.9533C120.893 99.1733 120.572 102.408 118.313 104.817C116.716 106.52 114.573 107.318 112.299 107.271C112.525 109.457 111.936 111.521 110.48 113.081C107.467 116.306 102.506 115.979 98.5421 113.411C98.257 114.424 97.806 115.38 97.2068 116.236C95.9052 118.095 93.8711 119.502 91.395 119.806C89.48 120.04 87.5352 119.588 85.7149 118.5C82.2822 121.352 78.2084 121.694 74.6805 120.981C72.8226 120.606 71.0561 119.935 69.4881 119.152C66.5686 121.837 62.0631 122.158 58.7627 119.705C57.5124 118.776 56.5936 117.566 56.0285 116.228C53.2026 117.87 49.5526 117.778 46.7633 115.705C44.767 114.221 43.6156 112.022 43.4001 109.726C41.6393 109.735 39.8611 109.194 38.3391 108.062C36.5643 106.743 35.4573 104.859 35.082 102.844C33.1316 102.99 31.1215 102.462 29.4285 101.203C26.9515 99.3622 25.7753 96.4205 26.0737 93.5584L21.8609 91.0307L21.8308 91.0865C21.767 91.2051 21.7175 91.2963 21.6836 91.3586L21.6446 91.4303L21.6311 91.4549C21.6308 91.4554 21.6297 91.4575 18.9993 90.015L21.6297 91.4575C20.9428 92.7101 19.468 93.3045 18.1044 92.8784L2.10444 87.8784C1.32578 87.6351 0.679791 87.0852 0.315318 86.3553C-0.0491543 85.6254 -0.100675 84.7786 0.172626 84.01L16.1726 39.01C16.446 38.2412 17.0206 37.617 17.7641 37.2811ZM66.1428 98.6727C68.5498 98.021 71.221 98.4393 73.3777 100.042C74.2887 100.72 75.0238 101.546 75.5742 102.462C75.6934 102.535 75.8089 102.618 75.9196 102.711L87.9356 112.724L87.9515 112.738C89.1834 113.794 90.1177 113.917 90.6657 113.85C91.252 113.778 91.843 113.436 92.2914 112.795C93.1465 111.573 93.3881 109.3 91.0467 107.293L91.0851 107.248L71.0615 90.3054C69.7967 89.2352 69.639 87.3422 70.7092 86.0774C71.7794 84.8126 73.6724 84.6548 74.9372 85.7251L100.952 107.737C103.823 110.198 105.809 109.292 106.095 108.985C106.209 108.863 106.502 108.471 106.25 107.419C105.983 106.307 105.106 104.594 102.953 102.422C97.8064 97.9816 85.2846 87.6853 81.1253 84.3578C79.8315 83.3228 79.6217 81.4349 80.6568 80.1411C81.6918 78.8474 83.5797 78.6376 84.8735 79.6726C89.0918 83.0473 101.792 93.4902 106.96 97.9547C107.848 98.7217 108.593 99.3798 109.025 99.7997C111.678 102.029 113.498 101.18 113.936 100.713C114.19 100.442 114.435 99.9557 114.301 99.1067C114.162 98.2207 113.576 96.8501 111.926 95.1849L78.9813 65.235C78.9461 65.203 78.9117 65.1702 78.878 65.1366C78.1319 64.3904 77.2655 63.9292 76.6443 63.8814C76.4023 63.8628 76.1733 63.9008 75.9046 64.0579C75.6101 64.2302 75.1287 64.6307 74.5718 65.5587C72.7926 68.524 69.6698 71.6115 66.1678 73.7127C62.7388 75.7701 58.2734 77.2689 54.0507 75.8613C53.916 75.8164 53.7847 75.762 53.6577 75.6985C52.1137 74.9265 50.8187 74.1876 49.8596 73.4203C48.9393 72.6841 47.8552 71.5491 47.6475 69.8873C47.4382 68.2127 48.2342 66.9105 48.8025 66.1527C49.3551 65.4159 50.1127 64.6588 50.7829 63.989L50.827 63.945C51.5624 63.1368 52.1431 62.5862 52.5976 62.1677L52.8297 61.9544C53.1593 61.6517 53.2665 61.5532 53.3648 61.4384L53.3714 61.4312C53.421 61.3785 53.6128 61.1746 54.0674 59.3732C54.4862 57.1592 55.2124 54.9106 56.0047 52.994C56.0754 52.8231 56.1474 52.6528 56.2206 52.4837L37.0857 50.2759C36.872 53.0974 36.2288 56.151 35.3902 59.1758C34.0284 64.0881 32.0355 69.3167 30.0086 74.0673C28.1089 78.5198 26.157 82.604 24.6187 85.6882L28.6592 88.1125L29.1226 87.4892C31.8989 83.754 37.1775 82.9767 40.9127 85.753C42.1134 86.6455 43.0084 87.7965 43.578 89.0717C46.1837 88.0699 49.2305 88.3836 51.6368 90.1722C52.7256 90.9815 53.5631 92.0035 54.1344 93.1379C56.8949 91.7383 60.326 91.9177 62.9786 93.8895C64.625 95.1132 65.6967 96.8231 66.1428 98.6727ZM75.9169 110.519C75.6936 110.972 75.4262 111.412 75.1138 111.832L73.2842 114.294C74.1157 114.639 74.9885 114.922 75.8685 115.1C77.654 115.46 79.325 115.379 80.8103 114.597L75.9169 110.519ZM118.155 74.0673C119.951 78.2769 121.793 82.1572 123.289 85.1745L116.2 90.9742C116.174 90.9474 116.147 90.9206 116.121 90.8939L116.096 90.8695C116.07 90.8443 116.044 90.8196 116.017 90.7954L83.0661 60.8397C81.8055 59.5962 79.6955 58.0984 77.1045 57.8991C74.1111 57.6688 71.3793 59.2177 69.4269 62.4717C68.2061 64.5064 65.8289 66.9189 63.0809 68.5677C60.3537 70.2041 57.8941 70.7269 56.1278 70.2246C55.2426 69.776 54.6049 69.4136 54.1524 69.1211C54.3988 68.8609 54.7139 68.5434 55.1207 68.1366C55.1557 68.1015 55.1899 68.0656 55.2231 68.0289C55.8215 67.368 56.2785 66.9346 56.6619 66.5815L56.7394 66.5105L56.817 66.4397L56.8173 66.4395C57.14 66.1453 57.5651 65.7578 57.9213 65.342C58.9549 64.1356 59.4043 62.7649 59.9098 60.7428C59.9248 60.6828 59.9379 60.6223 59.9492 60.5615C60.2742 58.8063 60.8719 56.9256 61.5495 55.2864C62.106 53.9406 62.6542 52.9078 63.0596 52.2861L74.4234 45.6572C77.2697 44.2534 79.49 44.1568 81.591 44.6053C83.6497 45.0448 85.6142 45.992 88.1321 47.206C88.4784 47.373 88.8353 47.5451 89.2043 47.7215C92.1302 49.1209 95.5815 50.6579 99.8145 51.3226C103.143 51.8453 106.857 51.8161 111.13 50.8887C111.385 53.5369 111.995 56.3688 112.773 59.1758C114.135 64.0881 116.128 69.3167 118.155 74.0673ZM17.5176 86.4089C17.9142 85.6479 18.3978 84.7074 18.9437 83.6211C20.4875 80.5489 22.5214 76.3264 24.4899 71.7127C26.463 67.0883 28.3451 62.1294 29.6083 57.5729C30.6487 53.82 31.1979 50.5825 31.1619 48.1112L20.781 43.9588L6.87064 83.0817L17.5176 86.4089ZM130.645 86.4089C130.249 85.6479 129.765 84.7074 129.219 83.6211C127.676 80.5489 125.642 76.3264 123.673 71.7127C121.7 67.0883 119.818 62.1294 118.555 57.5729C117.514 53.82 116.965 50.5825 117.001 48.1112L127.382 43.9588L141.292 83.0817L130.645 86.4089ZM53.4966 69.9106C53.4971 69.9104 53.5016 69.903 53.5085 69.8886C53.5037 69.8967 53.5004 69.9025 53.4986 69.9061C53.497 69.9092 53.4963 69.9106 53.4966 69.9106ZM36.4031 95.888L37.8334 93.9638C38.6329 92.8882 38.409 91.368 37.3334 90.5685C36.2577 89.769 34.7376 89.9928 33.9381 91.0685L32.5078 92.9926C31.7083 94.0683 31.9322 95.5884 33.0078 96.388C34.0835 97.1875 35.6036 96.9636 36.4031 95.888ZM48.5574 98.383L45.3137 102.747C44.5142 103.823 42.994 104.046 41.9184 103.247C40.8427 102.447 40.6189 100.927 41.4184 99.8516L44.6621 95.4876C45.4617 94.412 46.9818 94.1881 48.0574 94.9876C49.1331 95.7872 49.357 97.3073 48.5574 98.383ZM53.738 110.389L59.8993 102.1C60.6988 101.025 60.475 99.5044 59.3993 98.7049C58.3237 97.9054 56.8035 98.1292 56.004 99.2049L49.8427 107.494C49.0431 108.57 49.267 110.09 50.3426 110.889C51.4183 111.689 52.9384 111.465 53.738 110.389ZM70.2983 108.253L65.7373 114.389C64.9378 115.465 63.4176 115.689 62.342 114.889C61.2663 114.09 61.0425 112.57 61.842 111.494L66.403 105.358C67.2026 104.282 68.7227 104.058 69.7984 104.858C70.874 105.657 71.0979 107.177 70.2983 108.253ZM111.536 12.4386C112.959 13.2872 113.424 15.1288 112.576 16.5518L103.531 31.7184C102.682 33.1415 100.841 33.6071 99.4179 32.7585C97.9949 31.9099 97.5292 30.0683 98.3778 28.6453L107.422 13.4787C108.271 12.0556 110.113 11.59 111.536 12.4386ZM38.0363 16.5518C37.1877 15.1288 37.6534 13.2872 39.0764 12.4386C40.4994 11.59 42.3409 12.0556 43.1896 13.4787L52.2341 28.6453C53.0828 30.0683 52.6171 31.9099 51.1941 32.7585C49.771 33.6071 47.9295 33.1415 47.0809 31.7184L38.0363 16.5518Z" fill="#878787"/>
</svg>
