<svg width="102" height="124" viewBox="0 0 102 124" fill="none" xmlns="http://www.w3.org/2000/svg">
<path fill-rule="evenodd" clip-rule="evenodd" d="M20.4542 0.428654C21.4486 -0.169082 22.6985 -0.139847 23.6639 0.503728C28.296 3.59182 32.199 5.3832 35.3819 6.09773C38.5161 6.80133 40.7757 6.43067 42.4434 5.43512C49.4027 1.15631 55.2092 0.0995904 60.4369 1.32963C65.4258 2.50351 69.3928 5.67564 72.8457 8.63096C75.5183 10.5008 77.523 10.366 78.7783 9.99678C79.4791 9.79064 80.0439 9.47781 80.4296 9.21724C80.6197 9.08879 80.7572 8.97912 80.8361 8.91254C80.8735 8.88092 80.8969 8.85977 80.9054 8.85192C81.9418 7.84106 83.5552 7.71386 84.738 8.55482C85.9312 9.4031 86.3379 10.9887 85.7002 12.3066L82.9997 10.9999C85.7002 12.3066 85.6996 12.3079 85.6989 12.3093L85.6975 12.3122L85.6945 12.3184L85.6876 12.3324L85.6702 12.3672C85.6571 12.3934 85.6407 12.4254 85.6208 12.4633C85.5812 12.539 85.5279 12.6378 85.4595 12.7589C85.3227 13.0012 85.1255 13.3322 84.8563 13.7449C84.3178 14.5706 83.4922 15.7217 82.2866 17.1416C79.8766 19.9801 75.9557 23.8842 69.7881 28.4087C68.6991 29.2279 67.954 29.9708 67.448 30.6284C67.5669 30.6557 67.6854 30.6836 67.8033 30.7122C68.8853 29.653 70.3665 29 72.0002 29C73.8159 29 75.4432 29.8065 76.5434 31.0808C78.6083 30.0687 80.9827 28.1697 82.1914 24.9466C82.7732 23.3952 84.5024 22.6092 86.0538 23.191C87.6051 23.7728 88.3911 25.502 87.8094 27.0534C86.7992 29.7471 85.281 31.8349 83.5877 33.4308C84.1357 33.6214 84.6811 33.8251 85.2207 34.0422C90.0972 36.0052 95.3149 39.4181 96.8947 45.2109C97.3307 46.8094 96.3883 48.4586 94.7898 48.8945C93.1913 49.3305 91.5421 48.3881 91.1062 46.7896C90.286 43.7824 87.337 41.362 82.9802 39.6082C81.1201 38.8595 79.1498 38.2944 77.2635 37.8831C76.2437 39.7408 74.269 41 72.0002 41C71.4902 41 70.9951 40.9364 70.5223 40.8167C71.1524 41.5773 71.8237 42.3572 72.5269 43.1742C72.7646 43.4504 73.0061 43.7309 73.2508 44.0163C78.2325 49.5193 85.3519 58.9399 91.2467 69.5421C97.1092 80.086 102 92.2194 102 103C102 108.529 100.065 112.807 96.592 115.909C93.2414 118.902 88.7057 120.58 83.8457 121.565C75.8565 123.185 65.9246 123.105 56.6369 123.03L56.6346 123.03C54.7215 123.015 52.8356 123 50.9998 123C50.0178 123 49.0103 123.003 47.9823 123.005H47.9815H47.9807H47.9799H47.979H47.9789C38.7104 123.03 27.7788 123.059 18.8817 121.186C13.9231 120.142 9.25003 118.445 5.77154 115.559C2.16114 112.563 -0.000244141 108.41 -0.000244141 103C-0.000244141 92.8161 3.98338 81.3199 9.0803 71.3809C14.1826 61.4314 20.6334 52.5935 25.9929 47.77C30.2479 43.9404 31.9698 40.6771 32.6741 38.2699C31.5853 38.4919 30.5812 38.7115 29.6814 38.9214C28.0679 39.2979 26.4547 38.2951 26.0782 36.6816C25.7017 35.0681 26.7046 33.4548 28.3181 33.0784C29.6777 32.7611 31.2581 32.4239 33.0002 32.089C32.9999 32.0594 32.9998 32.0297 32.9998 31.9999C32.9998 31.8381 32.9106 31.3576 32.3252 30.434C31.7624 29.546 30.9341 28.5433 29.889 27.3753C29.5132 26.9552 29.1034 26.5093 28.6745 26.0426C26.8968 24.1083 24.792 21.8179 23.4273 19.5434C21.9771 17.1265 20.9772 13.8323 20.3026 10.9289C19.6126 7.95914 19.1929 5.0813 19.0146 3.29839C18.8992 2.14393 19.4598 1.02639 20.4542 0.428654ZM39.0148 37.1293C38.9387 37.7545 38.8268 38.4087 38.6669 39.075C37.7553 42.8733 35.3899 47.3849 30.0066 52.2298C25.3661 56.4063 19.3169 64.5683 14.4192 74.1188C9.51613 83.6798 5.99976 94.1837 5.99976 103C5.99976 106.589 7.33837 109.062 9.60297 110.941C11.9995 112.93 15.5764 114.358 20.1178 115.314C28.3502 117.047 38.6127 117.025 48.0106 117.004H48.0107C49.0182 117.002 50.0157 117 50.9998 117C52.9697 117 54.9485 117.015 56.9202 117.029H56.9205H56.9207H56.9209H56.9212H56.9212C66.21 117.099 75.3417 117.167 82.6538 115.685C87.0438 114.795 90.3831 113.41 92.5949 111.434C94.6848 109.568 95.9997 106.971 95.9997 103C95.9997 93.7804 91.7237 82.7471 86.0028 72.4577C80.3253 62.2465 73.4604 53.1825 68.7768 48.0144L68.7526 47.9875C68.7423 47.9758 68.7321 47.9641 68.722 47.9523C68.4894 47.6809 68.2534 47.4069 68.0157 47.1308L68.0139 47.1287L68.0137 47.1285L68.0134 47.1281C66.7631 45.6763 65.4639 44.1675 64.3405 42.6807C63.0035 40.911 61.7516 38.9661 61.037 36.8826C60.907 36.5035 60.7942 36.1179 60.7016 35.7268C57.5114 35.5054 53.9693 35.5672 50.3573 35.8177C46.4688 36.0874 42.5612 36.5713 39.0148 37.1293ZM61.0951 29.7397C57.5471 29.495 53.7204 29.57 49.9422 29.8321C46.1769 30.0932 42.407 30.544 38.934 31.0706C38.7288 29.607 38.0729 28.2947 37.393 27.222C36.5496 25.8912 35.4404 24.5815 34.3605 23.3745C33.8503 22.8043 33.3475 22.2554 32.8596 21.7226L32.8591 21.7221C31.1315 19.836 29.5905 18.1536 28.5722 16.4564C27.6224 14.8733 26.789 12.3342 26.1469 9.57091C26.092 9.33444 26.0389 9.09855 25.9877 8.8639C28.8317 10.34 31.5294 11.3822 34.0676 11.952C38.2753 12.8966 42.2122 12.571 45.5432 10.5724L45.572 10.5549C51.6057 6.84184 55.7943 6.40111 59.0626 7.17013C62.5223 7.98418 65.5252 10.2586 69.0474 13.2776C69.1145 13.3352 69.1841 13.3897 69.256 13.4411C71.3167 14.913 73.3039 15.7066 75.1433 16.0358C73.0303 18.1535 70.1345 20.7142 66.2257 23.5807L66.1983 23.601C63.74 25.4471 61.9954 27.4654 61.0951 29.7397ZM53.0001 56.0001C53.0001 54.3433 51.657 53.0001 50.0001 53.0001C48.3433 53.0001 47.0001 54.3433 47.0001 56.0001V58.0494C45.0891 58.2348 42.898 58.712 40.8654 59.6525C37.3502 61.2789 34.0001 64.4999 34.0001 70.0001C34.0001 75.2517 37.1848 78.5989 40.5303 80.4791C42.6403 81.6648 44.9631 82.3714 47.0001 82.7226V96.779C41.6893 95.9836 38.283 93.2535 37.3047 92.0796C36.244 90.8068 34.3523 90.6348 33.0795 91.6955C31.8067 92.7562 31.6347 94.6479 32.6954 95.9207C34.6247 98.2358 39.657 101.992 47.0001 102.831V106C47.0001 107.657 48.3433 109 50.0001 109C51.657 109 53.0001 107.657 53.0001 106V102.798C56.1581 102.349 58.7454 101.151 60.6511 99.1914C63.1106 96.6615 64.0001 93.307 64.0001 90.0001C64.0001 87.1139 62.6184 83.9067 60.3137 81.4483C58.5042 79.5182 56.0318 77.9466 53.0001 77.308V64.5627C53.848 64.8524 54.6844 65.2318 55.4633 65.6472C56.2823 66.084 56.9675 66.5225 57.4442 66.8493C57.6812 67.0119 57.8632 67.1444 57.9807 67.2321C58.0393 67.2759 58.0815 67.3083 58.1062 67.3274L58.1296 67.3456L58.1313 67.347C59.425 68.3772 61.3091 68.1663 62.3427 66.8742C63.3778 65.5804 63.168 63.6925 61.8742 62.6575L60.0001 65.0001C61.8742 62.6575 61.8723 62.656 61.8717 62.6556L61.8688 62.6532L61.8615 62.6474L61.8414 62.6315L61.7793 62.583C61.7283 62.5436 61.6582 62.49 61.5704 62.4244C61.3948 62.2934 61.1471 62.1134 60.8373 61.9009C60.2202 61.4778 59.3429 60.9163 58.2869 60.3531C56.8955 59.611 55.0524 58.7888 53.0001 58.3395V56.0001ZM47.0001 64.0888V76.5989C45.8393 76.3183 44.5927 75.8795 43.4699 75.2485C41.3154 74.0377 40.0001 72.385 40.0001 70.0001C40.0001 67.5004 41.3167 66.0547 43.3849 65.0978C44.542 64.5624 45.8304 64.2484 47.0001 64.0888ZM53.0001 96.7079V83.5483C54.174 84.0061 55.1537 84.7171 55.9365 85.552C57.3817 87.0936 58.0001 88.8864 58.0001 90.0001C58.0001 92.2933 57.3895 93.9388 56.3491 95.0089C55.6741 95.7031 54.6294 96.3494 53.0001 96.7079Z" fill="#878787"/>
</svg>
