<svg width="230" height="168" viewBox="0 0 230 168" fill="none" xmlns="http://www.w3.org/2000/svg">
<path d="M10.0723 131.734V136.27H17.5605V142.211H10.0723V151H2.47852V125.793H18.2812V131.734H10.0723ZM41.291 141.684C41.291 144.719 40.3711 147.104 38.5312 148.838C36.7031 150.572 34.1426 151.439 30.8496 151.439C27.5801 151.439 25.0312 150.596 23.2031 148.908C21.3867 147.209 20.4785 144.871 20.4785 141.895C20.4785 139.984 20.9062 138.326 21.7617 136.92C22.6172 135.514 23.8359 134.436 25.418 133.686C27 132.936 28.8223 132.561 30.8848 132.561C33.0176 132.561 34.8633 132.953 36.4219 133.738C37.9922 134.523 39.1934 135.613 40.0254 137.008C40.8691 138.402 41.291 139.961 41.291 141.684ZM33.6973 141.719C33.6973 139.27 32.7598 138.045 30.8848 138.045C29.0098 138.045 28.0723 139.328 28.0723 141.895C28.0723 144.602 29.0215 145.955 30.9199 145.955C32.7715 145.955 33.6973 144.543 33.6973 141.719ZM58.8867 141.42L64.6875 151H56.0742L54.1406 146.904C53.918 146.447 53.666 145.82 53.3848 145.023H53.3145C53.0684 145.82 52.9102 146.312 52.8398 146.5C52.7695 146.676 52.084 148.176 50.7832 151H42.2227L48.1992 141.93L42.5742 133H51.2227L53.1562 137.184C53.4141 137.664 53.6719 138.32 53.9297 139.152H54C54.3398 138.133 54.5801 137.465 54.7207 137.148L56.5488 133H64.7227L58.8867 141.42ZM84.3926 128.148C84.3926 129.203 84.0059 130.059 83.2324 130.715C82.4707 131.371 81.4629 131.699 80.209 131.699C78.9902 131.699 77.9883 131.359 77.2031 130.68C76.4297 130 76.043 129.156 76.043 128.148C76.043 127.117 76.418 126.285 77.168 125.652C77.9297 125.008 78.9434 124.686 80.209 124.686C81.4629 124.686 82.4707 125.008 83.2324 125.652C84.0059 126.285 84.3926 127.117 84.3926 128.148ZM76.4648 151V133H83.9531V151H76.4648ZM99.2461 151V141.174C99.2461 140.061 99.0762 139.264 98.7363 138.783C98.4082 138.291 97.8691 138.045 97.1191 138.045C96.4746 138.045 95.9707 138.297 95.6074 138.801C95.2441 139.305 95.0625 139.949 95.0625 140.734V151H87.5742V133H95.0625V135.812H95.1328C95.7305 134.781 96.5332 133.984 97.541 133.422C98.5488 132.848 99.6445 132.561 100.828 132.561C104.766 132.561 106.734 135.045 106.734 140.014V151H99.2461ZM128.408 131.734V136.27H135.896V142.211H128.408V151H120.814V125.793H136.617V131.734H128.408ZM159.627 141.684C159.627 144.719 158.707 147.104 156.867 148.838C155.039 150.572 152.479 151.439 149.186 151.439C145.916 151.439 143.367 150.596 141.539 148.908C139.723 147.209 138.814 144.871 138.814 141.895C138.814 139.984 139.242 138.326 140.098 136.92C140.953 135.514 142.172 134.436 143.754 133.686C145.336 132.936 147.158 132.561 149.221 132.561C151.354 132.561 153.199 132.953 154.758 133.738C156.328 134.523 157.529 135.613 158.361 137.008C159.205 138.402 159.627 139.961 159.627 141.684ZM152.033 141.719C152.033 139.27 151.096 138.045 149.221 138.045C147.346 138.045 146.408 139.328 146.408 141.895C146.408 144.602 147.357 145.955 149.256 145.955C151.107 145.955 152.033 144.543 152.033 141.719ZM175.957 139.416C175.676 139.287 175.295 139.17 174.814 139.064C174.334 138.959 173.936 138.906 173.619 138.906C171.146 138.906 169.91 140.336 169.91 143.195V151H162.422V133H169.91V136.164H169.98C170.438 135.027 171.088 134.166 171.932 133.58C172.775 132.982 173.76 132.684 174.885 132.684C175.295 132.684 175.652 132.754 175.957 132.895V139.416ZM184.588 144.127C184.717 144.9 185.162 145.51 185.924 145.955C186.686 146.389 187.693 146.605 188.947 146.605C190.693 146.605 192.346 146.271 193.904 145.604V150.35C192.088 151.076 189.885 151.439 187.295 151.439C184.154 151.439 181.711 150.637 179.965 149.031C178.219 147.426 177.346 145.217 177.346 142.404C177.346 140.471 177.727 138.766 178.488 137.289C179.262 135.812 180.398 134.658 181.898 133.826C183.41 132.982 185.074 132.561 186.891 132.561C188.754 132.561 190.348 132.924 191.672 133.65C192.996 134.377 193.998 135.396 194.678 136.709C195.369 138.021 195.715 139.557 195.715 141.314V144.127H184.588ZM189.088 140.207C189.088 138.133 188.344 137.096 186.855 137.096C186.234 137.096 185.713 137.383 185.291 137.957C184.869 138.52 184.623 139.27 184.553 140.207H189.088ZM213.117 141.42L218.918 151H210.305L208.371 146.904C208.148 146.447 207.896 145.82 207.615 145.023H207.545C207.299 145.82 207.141 146.312 207.07 146.5C207 146.676 206.314 148.176 205.014 151H196.453L202.43 141.93L196.805 133H205.453L207.387 137.184C207.645 137.664 207.902 138.32 208.16 139.152H208.23C208.57 138.133 208.811 137.465 208.951 137.148L210.779 133H218.953L213.117 141.42Z" fill="white"/>
<path fill-rule="evenodd" clip-rule="evenodd" d="M97.1285 18.2017C97.1285 18.2017 92.5009 11.7232 92.5009 0C99.5965 4.01055 104.533 4.93607 111.937 4.93607C119.341 4.93607 124.277 4.01053 131.372 2.02506e-05C131.372 11.7232 126.745 18.2018 126.745 18.2018C118.137 21.276 111.98 31.3959 111.937 31.4671V31.4674L111.937 31.4672L111.936 31.4674V31.4671C111.893 31.3959 105.736 21.2759 97.1285 18.2017ZM111.937 56.7649C118.887 51.056 124.039 45.7465 126.109 27.8217C131.044 39.2357 128.969 51.1685 121.192 62.3179C135.22 69.0901 150.007 63.9162 155.74 60.919C155.498 82.1788 138.189 99.3382 116.872 99.3382C95.4034 99.3382 78 81.9349 78 60.4667C78 46.1536 85.7359 33.6473 97.2547 26.9009C98.989 41.7747 103.787 51.9706 111.937 56.7649Z" fill="white"/>
</svg>
