<svg width="144" height="142" viewBox="0 0 144 142" fill="none" xmlns="http://www.w3.org/2000/svg">
<path fill-rule="evenodd" clip-rule="evenodd" d="M6 3C6 1.34315 4.65685 0 3 0C1.34315 0 0 1.34315 0 3V139C0 140.657 1.34315 142 3 142H141C142.657 142 144 140.657 144 139C144 137.343 142.657 136 141 136H6V3ZM94.1812 18.5761C92.8111 16.7418 91.9999 14.4656 91.9999 12C91.9999 5.92486 96.9248 0.999992 103 0.999992C108.392 0.999992 112.878 4.87976 113.819 10H141C142.657 10 144 11.3431 144 13C144 14.6569 142.657 16 141 16H113.25C111.65 20.0974 107.664 23 103 23C101.587 23 100.236 22.7335 98.9946 22.248L80.606 40.6366C81.4938 42.2233 81.9999 44.0526 81.9999 46C81.9999 52.0751 77.075 57 70.9999 57C64.9248 57 59.9999 52.0751 59.9999 46C59.9999 45.5102 60.0319 45.0278 60.0939 44.5549L47.4067 36.9426C45.6025 38.2376 43.3902 39 40.9999 39C34.9248 39 29.9999 34.0751 29.9999 28C29.9999 21.9249 34.9248 17 40.9999 17C47.075 17 51.9999 21.9249 51.9999 28C51.9999 29.4884 51.7043 30.9078 51.1685 32.2026L62.5087 39.0067C64.5262 36.5598 67.5809 35 70.9999 35C72.9474 35 74.7767 35.5061 76.3634 36.3939L94.1812 18.5761ZM94 52C92.3431 52 91 53.3432 91 55V122C91 123.657 92.3431 125 94 125H111C112.657 125 114 123.657 114 122V55C114 53.3432 112.657 52 111 52H94ZM97 119V58H108V119H97ZM32 69C30.3431 69 29 70.3432 29 72V122C29 123.657 30.3431 125 32 125H47C48.6569 125 50 123.657 50 122V72C50 70.3432 48.6569 69 47 69H32ZM35 119V75H44V119H35ZM63 87C61.3431 87 60 88.3432 60 90V122C60 123.657 61.3431 125 63 125H78C79.6569 125 81 123.657 81 122V90C81 88.3432 79.6569 87 78 87H63ZM66 119V93H75V119H66Z" fill="#878787"/>
</svg>
