<svg width="130" height="132" viewBox="0 0 130 132" fill="none" xmlns="http://www.w3.org/2000/svg">
<path fill-rule="evenodd" clip-rule="evenodd" d="M24.9998 6H105V62C105 82.9868 87.9866 100 66.9998 100H62.9998C42.013 100 24.9998 82.9868 24.9998 62V6ZM18.9998 6C18.9998 2.68629 21.6861 0 24.9998 0H105C108.313 0 111 2.68629 111 6V27H127C128.657 27 130 28.3432 130 30V60C130 60.0476 129.999 60.0952 129.996 60.1427C129.804 64.1829 128.222 70.0915 124.076 75.0495C120.142 79.7546 114.037 83.4286 105.148 83.9393C97.8613 96.583 84.4691 105.264 68.9981 105.955V124H96.9988C99.2079 124 100.999 125.791 100.999 128C100.999 130.209 99.2079 132 96.9988 132H32.9988C30.7896 132 28.9988 130.209 28.9988 128C28.9988 125.791 30.7896 124 32.9988 124H60.9981V105.955C45.5286 105.263 32.1378 96.5822 24.8512 83.9393C15.9618 83.4289 9.85714 79.7548 5.9226 75.0495C1.77679 70.0915 0.194809 64.1829 0.002419 60.1427C0.000155687 60.0952 -0.000976562 60.0476 -0.000976562 60V30C-0.000976562 28.3432 1.34217 27 2.99902 27H18.9998V6ZM108.173 77.5494C113.527 76.557 117.096 74.0435 119.473 71.2006C122.62 67.4374 123.844 62.8868 124 59.925V33H111V62C111 67.4742 110 72.7148 108.173 77.5494ZM18.9998 62C18.9998 67.4742 19.9995 72.715 21.8263 77.5496C16.4723 76.5573 12.9028 74.0436 10.5255 71.2006C7.37866 67.4374 6.15517 62.8868 5.99902 59.925V33H18.9998V62ZM55.3437 42.169C55.9342 42.0584 56.4437 41.6882 56.7314 41.1608L63.2437 29.2196C64.0017 27.8297 65.9974 27.8297 66.7554 29.2196L73.2677 41.1608C73.5554 41.6882 74.0649 42.0584 74.6555 42.169L88.0246 44.6726C89.5807 44.964 90.1974 46.862 89.1097 48.0124L79.7655 57.896C79.3527 58.3326 79.1581 58.9316 79.2354 59.5274L80.9856 73.0158C81.1894 74.5858 79.5748 75.7588 78.1446 75.0799L65.8572 69.2472C65.3145 68.9895 64.6847 68.9895 64.1419 69.2472L51.8545 75.0799C50.4243 75.7588 48.8098 74.5858 49.0135 73.0158L50.7637 59.5274C50.841 58.9316 50.6464 58.3326 50.2337 57.896L40.8894 48.0124C39.8018 46.862 40.4185 44.964 41.9746 44.6726L55.3437 42.169ZM61.999 44.0335L64.9996 38.5315L68.0002 44.0335C69.1508 46.1433 71.1889 47.6241 73.5511 48.0665L79.711 49.22L75.4055 53.774C73.7545 55.5203 72.9761 57.9162 73.2853 60.2994L74.0917 66.5144L68.4302 63.8269C66.2592 62.7963 63.7399 62.7963 61.5689 63.8269L55.9074 66.5144L56.7138 60.2994C57.0231 57.9162 56.2446 55.5203 54.5936 53.774L50.2881 49.22L56.4481 48.0665C58.8102 47.6241 60.8483 46.1433 61.999 44.0335Z" fill="#878787"/>
</svg>
