<svg width="128" height="180" viewBox="0 0 128 180" fill="none" xmlns="http://www.w3.org/2000/svg">
<path fill-rule="evenodd" clip-rule="evenodd" d="M55.4034 11.7742C59.5903 7.49199 62.075 6.06039 64.0953 6.00194C66.0527 5.94531 68.6869 7.16948 73.2083 11.7779L120.127 59.5993L120.148 59.6196C121.885 61.3568 122.218 63.5669 121.518 65.1771C120.874 66.6569 118.94 68.4983 114.269 68.4983H93.2689C91.612 68.4983 90.2689 69.8415 90.2689 71.4983V127.498H39.2689V71.4983C39.2689 69.8415 37.9258 68.4983 36.2689 68.4983H17.2689C10.8177 68.4983 7.8569 67.4683 6.69002 66.5327C6.22267 66.158 6.08152 65.8322 6.02779 65.5142C5.96007 65.1134 5.99998 64.471 6.34437 63.5161C7.05281 61.5519 8.71977 59.1437 10.9176 56.5726C12.9847 54.1545 15.3071 51.8328 17.2762 49.8642L17.2763 49.8642L17.5144 49.6261C28.1779 39.0924 44.8108 22.6078 55.4034 11.7742ZM77.4911 7.57582C72.9026 2.89905 68.6521 -0.132403 63.9218 0.00444883C59.2543 0.139482 55.2483 3.35046 51.1133 7.57952C40.5608 18.3721 23.96 34.8252 13.2913 45.3641L13.2912 45.364L13.2782 45.377L12.9942 45.6609L12.9941 45.661C11.0527 47.6015 8.58119 50.0718 6.35679 52.674C4.06679 55.3529 1.79512 58.4448 0.700242 61.4805C0.142975 63.0256 -0.184936 64.7583 0.111619 66.5137C0.422164 68.3519 1.37738 69.9636 2.93677 71.2139C5.82337 73.5283 10.6376 74.4983 17.2689 74.4983H33.2689V130.498C33.2689 132.155 34.6121 133.498 36.2689 133.498H93.2689C94.9258 133.498 96.2689 132.155 96.2689 130.498V74.4983H114.269C120.598 74.4983 125.163 71.8397 127.02 67.5695C128.818 63.4342 127.656 58.6503 124.401 55.3877L77.4911 7.57582ZM35.2582 152.498C33.6014 152.498 32.2582 153.841 32.2582 155.498C32.2582 157.155 33.6014 158.498 35.2582 158.498H94.2582C95.9151 158.498 97.2582 157.155 97.2582 155.498C97.2582 153.841 95.9151 152.498 94.2582 152.498H35.2582ZM35.2582 173.498C33.6014 173.498 32.2582 174.841 32.2582 176.498C32.2582 178.155 33.6014 179.498 35.2582 179.498H94.2582C95.9151 179.498 97.2582 178.155 97.2582 176.498C97.2582 174.841 95.9151 173.498 94.2582 173.498H35.2582Z" fill="#878787"/>
</svg>
