<svg width="197" height="178" viewBox="0 0 197 178" fill="none" xmlns="http://www.w3.org/2000/svg">
<path fill-rule="evenodd" clip-rule="evenodd" d="M98.0438 0.187454C97.3603 -0.066211 96.6079 -0.0623093 95.9271 0.19843L1.92706 36.1984C0.751973 36.6485 -0.0173956 37.784 0.000298895 39.0422C0.0179934 40.3004 0.818991 41.4138 2.00627 41.8306L38 54.4667V103C38 104.285 38.8189 105.428 40.0361 105.841L96.0361 124.841C96.656 125.051 97.3277 125.053 97.9487 124.846L115.949 118.846C117.521 118.322 118.37 116.623 117.846 115.051C117.322 113.479 115.623 112.63 114.051 113.154L97.0085 118.835L44 100.85V56.5731L96.0063 74.8306C96.585 75.0338 97.212 75.0547 97.8029 74.8906L115.803 69.8906C117.399 69.4471 118.334 67.7935 117.891 66.1971C117.447 64.6007 115.793 63.666 114.197 64.1094L97.1048 68.8573L11.7079 38.8775L97.0166 6.20612L185.392 39.0054L141.953 55.1888C140.4 55.7672 139.61 57.4947 140.189 59.0473C140.767 60.5999 142.495 61.3897 144.047 60.8112L151 58.221V100.899L141.975 104.181C140.418 104.747 139.614 106.468 140.181 108.025C140.747 109.582 142.468 110.386 144.025 109.819L155.025 105.819C156.211 105.388 157 104.262 157 103V55.9857L195.047 41.8112C196.222 41.3736 197.001 40.2517 197 38.9981C196.999 37.7446 196.219 36.6236 195.044 36.1875L98.0438 0.187454ZM98.9346 31.7071C97.6683 30.6387 95.7756 30.7991 94.7071 32.0654C93.6387 33.3317 93.7991 35.2244 95.0654 36.2929L126 62.394V150.322C119.71 151.695 115 157.298 115 164C115 171.732 121.268 178 129 178C136.732 178 143 171.732 143 164C143 157.298 138.29 151.695 132 150.322V61C132 60.1161 131.61 59.2771 130.935 58.7071L98.9346 31.7071ZM129.016 156C129.011 156 129.005 156 129 156C128.995 156 128.99 156 128.986 156C124.574 156.008 121 159.586 121 164C121 168.418 124.582 172 129 172C133.418 172 137 168.418 137 164C137 159.587 133.427 156.009 129.016 156Z" fill="#878787"/>
</svg>
