<svg width="164" height="147" viewBox="0 0 164 147" fill="none" xmlns="http://www.w3.org/2000/svg">
<path fill-rule="evenodd" clip-rule="evenodd" d="M120 0C144.796 0 164 22.4851 164 44V44.2093C164.001 49.052 164.001 53.2484 162.641 57.8102C161.255 62.4605 158.535 67.2709 153.488 73.7233C143.47 86.5318 123.544 106.699 84.1216 146.121C83.8288 146.414 83.4904 146.634 83.1292 146.78C82.4546 147.054 81.7005 147.072 81.0154 146.834C80.6002 146.691 80.2103 146.453 79.8787 146.121C40.4568 106.699 20.5305 86.5318 10.512 73.7233C5.46505 67.2709 2.74576 62.4606 1.35942 57.8102C-0.000514627 53.2484 -0.000272124 49.052 8.01769e-06 44.2093L1.61239e-05 44C1.61239e-05 22.4851 19.2047 1.07093e-05 44 1.07093e-05C53.9664 1.07093e-05 62.7889 3.78744 69.6869 8.3774C74.8752 11.8297 79.0834 15.8066 82.0002 19.1771C84.9169 15.8066 89.1251 11.8297 94.3134 8.37739C101.211 3.78743 110.034 0 120 0ZM84.4738 25.6986C86.7805 22.4832 91.4054 17.5193 97.6372 13.3726C103.889 9.21257 111.567 6 120 6C141.205 6 158 25.5149 158 44C158 49.0686 157.98 52.4422 156.891 56.0961C155.809 59.727 153.59 63.8541 148.762 70.0267C139.206 82.2439 120.16 101.588 82.0002 139.757C43.8406 101.588 24.7941 82.2439 15.238 70.0267C10.41 63.8542 8.19178 59.727 7.10936 56.0961C6.0201 52.4422 6.00002 49.0686 6.00002 44C6.00002 25.5149 22.7953 6.00001 44 6.00001C52.4336 6.00001 60.1112 9.21258 66.3631 13.3726C72.5953 17.5195 77.2203 22.4838 79.5269 25.6991C79.6117 25.8226 79.7065 25.9406 79.811 26.0519C80.0932 26.3537 80.4275 26.5863 80.7897 26.7455C81.1756 26.9162 81.5855 26.9996 81.993 27.0002C82.8033 27.0015 83.6036 26.6755 84.1846 26.0569C84.2912 25.944 84.3876 25.8241 84.4738 25.6986Z" fill="#878787"/>
</svg>
