<svg width="163" height="130" viewBox="0 0 163 130" fill="none" xmlns="http://www.w3.org/2000/svg">
<path fill-rule="evenodd" clip-rule="evenodd" d="M35.5034 11.0255C34.6521 12.3176 34.0894 13.7591 33.7137 15.2043C35.0409 14.84 36.4129 14.6161 37.8143 14.5253C44.5838 14.0868 51.7444 16.7538 57.7044 20.8744C58.1351 21.1722 58.5534 21.4785 58.9594 21.7907C59.4624 19.3254 59.3085 16.2971 58.2035 13.4656C56.5888 9.328 53.0951 6 46.9982 6C40.3909 6 37.2207 8.41885 35.5034 11.0255ZM30.493 7.72453C28.0702 11.402 27.3544 15.6013 27.0949 18.5608C24.6341 20.5237 22.5227 23.2312 20.9232 26.7617C17.628 34.0353 13.4027 48.7979 10.0484 61.4827C8.35673 67.8797 6.86463 73.8354 5.79563 78.1908C5.26742 80.3429 4.84224 82.1054 4.547 83.3389C2.27902 87.7311 0.998291 92.7161 0.998291 98.0001C0.998291 115.673 15.3252 130 32.9983 130C50.537 130 64.7802 115.89 64.9958 98.4026C74.7612 103.993 83.9798 103.701 91.1037 101.631C94.1852 100.736 96.8549 99.5167 99.0005 98.3336C99.1794 115.853 113.437 130 130.999 130C148.672 130 162.999 115.673 162.999 98.0001C162.999 92.7164 161.718 87.7319 159.451 83.3398C159.155 82.1063 158.73 80.3434 158.202 78.1908C157.133 73.8354 155.641 67.8797 153.949 61.4827C150.595 48.7979 146.369 34.0353 143.074 26.7617C141.298 22.8418 138.891 19.9364 136.076 17.9383C135.77 15.0307 134.995 11.1511 132.737 7.72453C129.788 3.24782 124.625 0 116.232 0C107.329 0 101.823 5.172 99.4375 11.2844C97.4651 16.3387 97.5098 22.3461 99.6435 26.792C99.2437 27.2168 98.8666 27.6252 98.5116 28.0095L98.5104 28.0109L98.2274 28.3171C97.2043 29.4233 96.4565 30.2115 95.8312 30.7354L95.8072 30.7555L95.768 30.7878C94.9484 30.3669 93.7871 29.8177 92.3643 29.2701C89.94 28.337 86.675 27.3772 82.9983 27.1085V27.0348C82.6624 27.0348 82.3291 27.0412 81.9987 27.0534C81.6683 27.0412 81.335 27.0348 80.9991 27.0348V27.1085C77.3224 27.3772 74.0574 28.337 71.6331 29.2701C70.2102 29.8177 69.049 30.3669 68.2293 30.7878C68.2089 30.7711 68.1879 30.7536 68.1661 30.7354C67.5409 30.2115 66.7931 29.4233 65.7699 28.3171L65.487 28.0109C64.9818 27.4639 64.4318 26.8682 63.8352 26.2458C65.721 21.8623 65.6857 16.1345 63.793 11.2844C61.4076 5.172 55.9013 0 46.9982 0C38.6055 0 33.4424 3.24782 30.493 7.72453ZM104.387 22.3041C104.993 21.8138 105.628 21.3339 106.293 20.8744C112.253 16.7538 119.414 14.0868 126.183 14.5253C127.297 14.5975 128.393 14.7537 129.462 14.9979C129.087 13.6221 128.538 12.2561 127.727 11.0255C126.01 8.41885 122.839 6 116.232 6C110.135 6 106.642 9.328 105.027 13.4656C103.844 16.497 103.751 19.754 104.387 22.3041ZM26.3885 29.2377C29.1024 23.2473 33.4135 20.8229 38.2021 20.5127C43.22 20.1877 49.0593 22.1918 54.2922 25.8097C57.0314 27.7035 59.2007 30.0499 61.1756 32.1862L61.1756 32.1862L61.3653 32.3913C62.3281 33.4323 63.3402 34.5195 64.3123 35.3341C65.1936 36.0727 66.6236 37.105 68.423 37.105H69.2763L69.9958 36.6596L69.9989 36.6577L70.0007 36.6566L70.0325 36.6375C70.067 36.6171 70.1251 36.5829 70.2058 36.5369C70.3672 36.445 70.618 36.3064 70.9482 36.1365C71.61 35.7959 72.5828 35.3336 73.7882 34.8697C75.9878 34.0231 78.8693 33.2069 81.9987 33.0587C85.1281 33.2069 88.0096 34.0231 90.2092 34.8697C91.4146 35.3336 92.3874 35.7959 93.0492 36.1365C93.3794 36.3064 93.6302 36.445 93.7916 36.5369C93.8722 36.5829 93.9304 36.6171 93.9648 36.6375L93.9967 36.6566L93.9984 36.6577L94.0016 36.6596L94.721 37.105H95.5744C97.3737 37.105 98.8037 36.0727 99.6851 35.3341C100.657 34.5195 101.669 33.4323 102.632 32.3913L102.822 32.1862C104.797 30.0499 106.966 27.7035 109.705 25.8097C114.938 22.1918 120.777 20.1877 125.795 20.5127C130.584 20.8229 134.895 23.2473 137.609 29.2377C140.656 35.9639 144.76 50.2013 148.148 63.0166C149.056 66.4497 149.907 69.7562 150.664 72.7541C145.239 68.5217 138.413 66.0001 130.999 66.0001C115.842 66.0001 103.146 76.5383 99.8381 90.6876C99.3448 91.0547 98.7031 91.5066 97.9282 91.9986C95.8848 93.296 92.9617 94.8429 89.4296 95.8692C82.7745 97.8029 73.823 97.9518 64.1534 90.6637C60.8371 76.5264 48.147 66.0001 32.9983 66.0001C25.5841 66.0001 18.7588 68.5216 13.3332 72.7538C14.0908 69.756 14.9412 66.4496 15.849 63.0166C19.2378 50.2013 23.3413 35.9639 26.3885 29.2377ZM130.999 72.0001C140.821 72.0001 149.372 77.447 153.794 85.4852L153.863 85.7726L153.962 86.1932L154.078 86.6828C154.078 86.6829 154.078 86.6833 154.379 86.613C156.057 90.0519 156.999 93.9161 156.999 98.0001C156.999 112.359 145.358 124 130.999 124C116.639 124 104.999 112.359 104.999 98.0001C104.999 83.6407 116.639 72.0001 130.999 72.0001ZM6.99829 98.0001C6.99829 93.916 7.93994 90.0519 9.61796 86.613C9.9194 86.6833 9.91949 86.6829 9.91952 86.6828L10.035 86.1932C10.0792 86.0068 10.1355 85.7694 10.2034 85.4844C14.6259 77.4467 23.1761 72.0001 32.9983 72.0001C47.3577 72.0001 58.9983 83.6407 58.9983 98.0001C58.9983 112.359 47.3577 124 32.9983 124C18.6389 124 6.99829 112.359 6.99829 98.0001ZM88.9988 77.0001C88.9988 80.8661 85.8648 84.0001 81.9988 84.0001C78.1328 84.0001 74.9988 80.8661 74.9988 77.0001C74.9988 73.1341 78.1328 70.0001 81.9988 70.0001C85.8648 70.0001 88.9988 73.1341 88.9988 77.0001ZM94.9988 77.0001C94.9988 84.1798 89.1785 90.0001 81.9988 90.0001C74.8191 90.0001 68.9988 84.1798 68.9988 77.0001C68.9988 69.8204 74.8191 64.0001 81.9988 64.0001C89.1785 64.0001 94.9988 69.8204 94.9988 77.0001ZM16.9982 95.0001C18.655 95.0001 19.9982 96.3432 19.9982 98.0001C19.9982 104.594 24.8954 111 32.9982 111C34.655 111 35.9982 112.343 35.9982 114C35.9982 115.657 34.655 117 32.9982 117C21.1009 117 13.9982 107.406 13.9982 98.0001C13.9982 96.3432 15.3413 95.0001 16.9982 95.0001ZM117.999 98.0001C117.999 96.3432 116.656 95.0001 114.999 95.0001C113.342 95.0001 111.999 96.3432 111.999 98.0001C111.999 107.406 119.101 117 130.999 117C132.656 117 133.999 115.657 133.999 114C133.999 112.343 132.656 111 130.999 111C122.896 111 117.999 104.594 117.999 98.0001Z" fill="#878787"/>
</svg>
