<svg width="156" height="156" viewBox="0 0 156 156" fill="none" xmlns="http://www.w3.org/2000/svg">
<path fill-rule="evenodd" clip-rule="evenodd" d="M150 78C150 117.765 117.765 150 78 150C38.2355 150 6 117.765 6 78C6 38.2355 38.2355 6 78 6C117.765 6 150 38.2355 150 78ZM156 78C156 121.078 121.078 156 78 156C34.9218 156 0 121.078 0 78C0 34.9218 34.9218 0 78 0C121.078 0 156 34.9218 156 78ZM99.6263 46.4503C100.427 44.9999 99.9008 43.1749 98.4504 42.3739C97 41.5729 95.1749 42.0994 94.374 43.5498L57.374 110.55C56.573 112 57.0995 113.825 58.5499 114.626C60.0003 115.427 61.8253 114.901 62.6263 113.45L99.6263 46.4503ZM60.4613 76.0273C62.5338 73.1776 64 68.9447 64 64C64 59.0552 62.5338 54.8224 60.4613 51.9727C58.3845 49.1171 56.0257 48 54 48C51.9743 48 49.6155 49.1171 47.5387 51.9727C45.4662 54.8224 44 59.0552 44 64C44 68.9447 45.4662 73.1776 47.5387 76.0273C49.6155 78.8829 51.9743 80 54 80C56.0257 80 58.3845 78.8829 60.4613 76.0273ZM54 86C62.8366 86 70 76.1503 70 64C70 51.8497 62.8366 42 54 42C45.1635 42 38 51.8497 38 64C38 76.1503 45.1635 86 54 86ZM112 94C112 98.9447 110.534 103.178 108.461 106.027C106.385 108.883 104.026 110 102 110C99.9743 110 97.6155 108.883 95.5388 106.027C93.4663 103.178 92.0001 98.9447 92.0001 94C92.0001 89.0553 93.4663 84.8224 95.5388 81.9727C97.6155 79.1171 99.9743 78 102 78C104.026 78 106.385 79.1171 108.461 81.9727C110.534 84.8224 112 89.0553 112 94ZM118 94C118 106.15 110.837 116 102 116C93.1635 116 86.0001 106.15 86.0001 94C86.0001 81.8497 93.1635 72 102 72C110.837 72 118 81.8497 118 94Z" fill="#878787"/>
</svg>
