<svg width="216" height="216" viewBox="0 0 216 216" fill="none" xmlns="http://www.w3.org/2000/svg">
<path fill-rule="evenodd" clip-rule="evenodd" d="M95.9065 62.223C120.997 47.8957 148.424 45.2008 166.153 47.1326C166.322 47.1481 166.487 47.1778 166.648 47.2206C167.885 47.5478 168.779 48.633 168.87 49.9035C170.79 67.6341 168.085 95.0279 153.773 120.091C146.908 132.115 137.393 143.56 124.508 153.123C129.48 164.247 129.495 174.284 126.162 182.445C122.602 191.161 115.367 197.375 107.154 200.371C98.9504 203.363 89.5597 203.217 81.6118 198.934C73.6012 194.616 67.4362 186.303 65.3501 173.728L65.3436 173.694C65.0472 172.064 66.1284 170.502 67.7585 170.205C74.7587 168.933 81.2721 167.287 87.3298 165.321L50.6766 128.668C48.7105 134.725 47.0651 141.238 45.7924 148.238C45.499 149.851 43.9659 150.927 42.3539 150.661L42.3538 150.662C29.7316 148.589 21.3903 142.415 17.0633 134.386C12.7798 126.438 12.6341 117.047 15.6262 108.843C18.6213 100.631 24.8354 93.3961 33.5516 89.836C41.7132 86.5024 51.7494 86.5178 62.8736 91.4892C72.4368 78.6044 83.8824 69.089 95.9065 62.223ZM52.8874 122.393L93.6042 163.11C120.819 152.736 138.032 135.559 148.563 117.116C161.533 94.4019 164.457 69.5968 163.123 52.8733C146.399 51.5394 121.595 54.4637 98.8817 67.4334C80.4383 77.9648 63.2615 95.1777 52.8874 122.393ZM71.825 175.537C91.0638 171.683 106.762 165.037 119.492 156.636C123.418 166.024 123.136 173.985 120.607 180.176C117.759 187.149 111.912 192.249 105.099 194.734C98.2768 197.222 90.6969 197.014 84.4584 193.652C78.8522 190.63 74.0171 184.892 71.825 175.537ZM59.3611 96.5061C49.9733 92.5797 42.0113 92.8618 35.8203 95.3905C28.8476 98.2386 23.748 104.085 21.263 110.899C18.775 117.721 18.9829 125.301 22.345 131.539C25.3665 137.146 31.1052 141.981 40.4606 144.173C44.3144 124.934 50.9599 109.236 59.3611 96.5061ZM132.642 97.4966C128.736 101.402 122.405 101.402 118.499 97.4966C114.594 93.5913 114.594 87.2597 118.499 83.3544C122.405 79.4492 128.736 79.4492 132.642 83.3544C136.547 87.2597 136.547 93.5913 132.642 97.4966ZM136.884 101.739C130.636 107.988 120.505 107.988 114.257 101.739C108.008 95.4908 108.008 85.3602 114.257 79.1118C120.505 72.8634 130.636 72.8634 136.884 79.1118C143.133 85.3602 143.133 95.4908 136.884 101.739Z" fill="#878787"/>
</svg>
