<svg width="122" height="120" viewBox="0 0 122 120" fill="none" xmlns="http://www.w3.org/2000/svg">
<path fill-rule="evenodd" clip-rule="evenodd" d="M0 3.00073C0 1.34388 1.34315 0.000732422 3 0.000732422H89C90.6569 0.000732422 92 1.34388 92 3.00073V54.1485L103.48 36.3732C103.505 36.3338 103.532 36.2951 103.559 36.257C106.95 31.5099 112.619 30.6482 116.687 32.867C118.73 33.9816 120.377 35.8878 121.004 38.3981C121.633 40.9121 121.159 43.6918 119.622 46.4577C119.595 46.5075 119.566 46.5565 119.535 46.6047L91.9103 90.2698C91.9689 90.5038 92 90.7486 92 91.0007V117.001C92 118.658 90.6569 120.001 89 120.001H3C1.34315 120.001 0 118.658 0 117.001V3.00073ZM85.176 89.692L114.416 43.4737C115.342 41.7767 115.365 40.5794 115.183 39.8533C114.998 39.1136 114.52 38.5198 113.813 38.1344C112.392 37.3592 110.086 37.4895 108.478 39.693L79.06 85.244L85.176 89.692ZM77.1197 91.2518L80.6896 93.8481L76.1461 96.769L77.1197 91.2518ZM70.5943 93.7036L72.0457 85.4794C72.1152 85.0854 72.2628 84.7093 72.4799 84.3732L86.212 63.1106C86.0752 62.7673 86 62.3928 86 62.0007V6.00073H6V114.001H86V97.5672L73.6223 105.524C72.6197 106.169 71.3306 106.159 70.3382 105.498C69.3459 104.838 68.8385 103.653 69.0457 102.479L69.5344 99.7099C69.5172 99.685 69.5003 99.6598 69.4837 99.6342C69.1765 99.6741 68.5913 99.852 67.7174 100.353C65.7816 101.463 63.6271 103.455 62.2299 105.008C61.3989 105.931 60.0849 106.247 58.9252 105.802C57.7655 105.357 57 104.243 57 103.001C57 98.9782 56.4476 96.8487 55.8912 95.8826C55.7686 95.6699 55.6668 95.5517 55.6038 95.4907C55.5444 95.4331 55.5113 95.4178 55.5043 95.4146C55.4972 95.4114 55.4737 95.4009 55.414 95.3958C55.3494 95.3902 55.2302 95.3902 55.0437 95.4262C54.1697 95.5948 52.7036 96.3601 50.6842 98.1054C48.7448 99.7816 46.5858 102.104 44.3317 104.888C43.2892 106.176 41.4002 106.375 40.1124 105.332C38.8246 104.29 38.6258 102.401 39.6683 101.113C42.0483 98.1731 44.4563 95.5576 46.7608 93.5659C48.9853 91.6433 51.4399 90.0107 53.9073 89.5348C55.2145 89.2826 56.6337 89.3356 57.9925 89.9549C59.3525 90.5747 60.3668 91.6317 61.0905 92.8882C61.6993 93.9451 62.144 95.2139 62.4502 96.6729C63.1904 96.1133 63.9587 95.5921 64.7326 95.1483C66.061 94.3865 67.7273 93.6626 69.4721 93.6264C69.8511 93.6185 70.2266 93.6439 70.5943 93.7036ZM16 15.0007C16 13.3439 17.3431 12.0007 19 12.0007H45C46.6569 12.0007 48 13.3439 48 15.0007V44.0007C48 45.6576 46.6569 47.0007 45 47.0007H19C17.3431 47.0007 16 45.6576 16 44.0007V15.0007ZM22 18.0007V32.6602C23.4071 31.8228 24.9867 31.0954 26.709 30.5857C25.6438 29.3575 24.9991 27.7547 24.9991 26.0014C24.9991 22.1354 28.1331 19.0014 31.9991 19.0014C35.8651 19.0014 38.9991 22.1354 38.9991 26.0014C38.9991 27.7726 38.3413 29.3902 37.2566 30.6231C38.823 31.1044 40.4098 31.814 42 32.7864V18.0007H22ZM22 41.0007V40.1799C23.7657 38.4311 26.5534 36.5854 29.8251 36.0046C33.1665 35.4114 37.3763 36.0658 42 40.2817V41.0007H22ZM56 19.0007C56 17.3439 57.3432 16.0007 59 16.0007H75C76.6569 16.0007 78 17.3439 78 19.0007C78 20.6576 76.6569 22.0007 75 22.0007H59C57.3432 22.0007 56 20.6576 56 19.0007ZM56 30.0007C56 28.3439 57.3432 27.0007 59 27.0007H75C76.6569 27.0007 78 28.3439 78 30.0007C78 31.6576 76.6569 33.0007 75 33.0007H59C57.3432 33.0007 56 31.6576 56 30.0007ZM56 41.0007C56 39.3439 57.3432 38.0007 59 38.0007H75C76.6569 38.0007 78 39.3439 78 41.0007C78 42.6576 76.6569 44.0007 75 44.0007H59C57.3432 44.0007 56 42.6576 56 41.0007ZM16 56.0007C16 54.3439 17.3431 53.0007 19 53.0007H75C76.6569 53.0007 78 54.3439 78 56.0007V66.0007C78 67.6576 76.6569 69.0007 75 69.0007H19C17.3431 69.0007 16 67.6576 16 66.0007V56.0007ZM22 59.0007V63.0007H72V59.0007H22ZM17 78.0007C17 76.3439 18.3431 75.0007 20 75.0007H53C54.6569 75.0007 56 76.3439 56 78.0007C56 79.6576 54.6569 81.0007 53 81.0007H20C18.3431 81.0007 17 79.6576 17 78.0007ZM17 89.0007C17 87.3439 18.3431 86.0007 20 86.0007H36C37.6569 86.0007 39 87.3439 39 89.0007C39 90.6576 37.6569 92.0007 36 92.0007H20C18.3431 92.0007 17 90.6576 17 89.0007Z" fill="#878787"/>
</svg>
