<svg width="152" height="152" viewBox="0 0 152 152" fill="none" xmlns="http://www.w3.org/2000/svg">
<path fill-rule="evenodd" clip-rule="evenodd" d="M58.1353 23.1939C60.2881 22.4391 61.8267 20.5289 62.1054 18.2647C62.9559 11.354 68.857 6 75.9995 6C82.9726 6 88.7649 11.1038 89.8252 17.779C90.1832 20.0326 91.7886 21.8881 93.9673 22.5665C96.5468 23.3696 99.0481 24.3513 101.457 25.4974C103.42 26.4317 105.736 26.2304 107.509 24.9713C112.971 21.0918 120.602 21.6072 125.497 26.5025C130.219 31.2245 130.868 38.4937 127.421 43.9074C126.253 45.7419 126.169 48.0647 127.201 49.9787C128.664 52.6889 129.912 55.5302 130.925 58.4801C131.595 60.43 133.218 61.8996 135.225 62.372C141.405 63.8266 146 69.384 146 76C146 82.438 141.649 87.8752 135.716 89.5028C133.728 90.0484 132.159 91.5765 131.561 93.5498C130.56 96.8561 129.266 100.036 127.709 103.059C126.785 104.852 126.824 106.988 127.812 108.746C130.811 114.083 130.03 120.965 125.497 125.497C120.964 130.03 114.082 130.812 108.746 127.813C106.988 126.825 104.851 126.786 103.059 127.709C100.035 129.266 96.8556 130.561 93.5493 131.562C91.5761 132.16 90.0479 133.729 89.5024 135.717C87.8747 141.649 82.4375 146 75.9995 146C69.3835 146 63.8262 141.405 62.3715 135.226C61.8991 133.219 60.4295 131.595 58.4796 130.926C55.5297 129.913 52.6884 128.664 49.9782 127.202C48.0642 126.169 45.7414 126.253 43.9069 127.421C38.4932 130.868 31.2241 130.219 26.5021 125.497C21.6067 120.602 21.0914 112.972 24.9708 107.509C26.2299 105.736 26.4312 103.421 25.4969 101.457C24.3508 99.0486 23.3691 96.5473 22.566 93.9678C21.8876 91.789 20.0321 90.1837 17.7785 89.8257C11.1033 88.7654 5.99951 82.9731 5.99951 76C5.99951 68.8575 11.3536 62.9564 18.2642 62.1059C20.5284 61.8272 22.4387 60.2886 23.1934 58.1358C23.9995 55.8364 24.9491 53.6039 26.0317 51.4491C27.0766 49.3693 26.8244 46.8727 25.3846 45.0439C21.0627 39.5546 21.4378 31.5668 26.502 26.5025C31.5662 21.4383 39.554 21.0633 45.0434 25.3851C46.8722 26.8249 49.3687 27.0772 51.4486 26.0322C53.6034 24.9496 55.8359 24 58.1353 23.1939ZM75.9995 0C85.9691 0 94.235 7.29464 95.7509 16.8377C98.6045 17.7262 101.371 18.812 104.035 20.0794C111.843 14.5336 122.74 15.2605 129.74 22.2599C136.493 29.0131 137.407 39.3944 132.482 47.1298C134.099 50.1262 135.479 53.2684 136.6 56.5316C145.428 58.6098 152 66.5375 152 76C152 85.2093 145.775 92.9648 137.304 95.289C136.196 98.9467 134.765 102.464 133.043 105.807C137.325 113.427 136.224 123.256 129.74 129.74C123.255 136.224 113.426 137.325 105.806 133.043C102.463 134.765 98.9462 136.197 95.2885 137.304C92.9643 145.776 85.2088 152 75.9995 152C66.537 152 58.6093 145.429 56.5312 136.6C53.2679 135.48 50.1257 134.099 47.1293 132.483C39.3939 137.408 29.0127 136.493 22.2594 129.74C15.26 122.741 14.5332 111.844 20.0789 104.035C18.8116 101.372 17.7257 98.605 16.8372 95.7514C7.29415 94.2355 -0.000488281 85.9696 -0.000488281 76C-0.000488281 65.79 7.65011 57.3669 17.5313 56.1508C18.423 53.6072 19.4733 51.1381 20.6703 48.7555C14.4907 40.9065 15.0204 29.4989 22.2594 22.2599C29.4984 15.0209 40.906 14.4912 48.755 20.6708C51.1376 19.4738 53.6067 18.4235 56.1503 17.5317C57.3665 7.6506 65.7895 0 75.9995 0ZM99.9995 75.9999C99.9995 89.2548 89.2543 99.9999 75.9995 99.9999C62.7447 99.9999 51.9995 89.2548 51.9995 75.9999C51.9995 62.7451 62.7447 51.9999 75.9995 51.9999C89.2543 51.9999 99.9995 62.7451 99.9995 75.9999ZM106 75.9999C106 92.5685 92.5681 106 75.9995 106C59.431 106 45.9995 92.5685 45.9995 75.9999C45.9995 59.4314 59.431 45.9999 75.9995 45.9999C92.5681 45.9999 106 59.4314 106 75.9999Z" fill="#878787"/>
</svg>
