<svg width="161" height="150" viewBox="0 0 161 150" fill="none" xmlns="http://www.w3.org/2000/svg">
<path fill-rule="evenodd" clip-rule="evenodd" d="M136.561 0C146.026 0 152.207 3.64133 155.95 8.5508C159.602 13.3412 160.749 19.0896 160.749 23.1803C160.749 28.5382 158.954 33.1838 155.734 36.5037C152.51 39.827 148.016 41.6573 142.944 41.6573C138.994 41.6573 134.888 40.9065 131.731 38.4337C128.456 35.8682 126.65 31.8112 126.65 26.2038C126.65 22.4326 128.276 19.2183 130.475 16.968C132.628 14.7649 135.552 13.2699 138.408 13.2699C139.8 13.2699 140.928 14.3979 140.928 15.7895C140.928 17.181 139.8 18.3091 138.408 18.3091C137.233 18.3091 135.538 18.9977 134.079 20.49C132.667 21.9351 131.689 23.928 131.689 26.2038C131.689 30.6748 133.075 33.0848 134.839 34.4667C136.721 35.9411 139.502 36.6181 142.944 36.6181C146.773 36.6181 149.923 35.257 152.116 32.9952C154.313 30.7299 155.71 27.3968 155.71 23.1803C155.71 19.8802 154.757 15.2982 151.942 11.606C149.218 8.0328 144.565 5.03919 136.561 5.03919H82.4929C82.4867 5.03924 82.4805 5.03926 82.4743 5.03926H24.1876C16.1834 5.03926 11.5302 8.03287 8.80613 11.606C5.99124 15.2983 5.0387 19.8802 5.0387 23.1804C5.0387 27.3969 6.43489 30.73 8.63203 32.9953C10.8258 35.2571 13.9749 36.6182 17.8047 36.6182C21.2461 36.6182 24.0271 35.9412 25.9094 34.4667C27.6735 33.0848 29.0589 30.6748 29.0589 26.2039C29.0589 23.928 28.0812 21.9352 26.669 20.4901C25.2106 18.9978 23.5152 18.3091 22.3399 18.3091C20.9484 18.3091 19.8203 17.1811 19.8203 15.7895C19.8203 14.398 20.9484 13.2699 22.3399 13.2699C25.196 13.2699 28.1199 14.7649 30.2729 16.968C32.4721 19.2184 34.098 22.4327 34.098 26.2039C34.098 31.8113 32.2919 35.8683 29.0168 38.4337C25.86 40.9066 21.7541 41.6574 17.8047 41.6574C12.7319 41.6574 8.23817 39.827 5.0148 36.5037C1.79481 33.1839 -0.000488281 28.5383 -0.000488281 23.1804C-0.000488281 19.0897 1.14664 13.3413 4.79871 8.55087C8.54158 3.6414 14.7227 6.71833e-05 24.1876 6.71833e-05H78.2555C78.2617 2.242e-05 78.2678 0 78.274 0H136.561ZM37.2887 18.309C37.2887 16.9174 38.4167 15.7894 39.8083 15.7894H121.107C122.499 15.7894 123.627 16.9174 123.627 18.309C123.627 19.7005 122.499 20.8286 121.107 20.8286H39.8083C38.4167 20.8286 37.2887 19.7005 37.2887 18.309ZM32.2497 45.1847C32.2497 43.7932 33.3778 42.6651 34.7693 42.6651H125.979C127.37 42.6651 128.498 43.7932 128.498 45.1847C128.498 46.5763 127.37 47.7043 125.979 47.7043H34.7693C33.3778 47.7043 32.2497 46.5763 32.2497 45.1847ZM34.6599 55.4037C34.9533 54.0434 36.2939 53.1786 37.6541 53.472C39.9214 53.961 41.8522 54.615 43.3784 55.6717C44.9964 56.7919 46.0072 58.2564 46.5928 60.0419C47.1433 61.7204 47.3093 63.6604 47.3656 65.7649C47.4026 67.1485 47.3924 68.7457 47.3811 70.5148C47.3752 71.4335 47.3691 72.3985 47.3691 73.4041V147.48C47.3691 148.872 46.241 150 44.8495 150C43.458 150 42.3299 148.872 42.3299 147.48V73.4041C42.3299 72.3044 42.3365 71.2955 42.3425 70.3613C42.3536 68.658 42.3631 67.2031 42.3282 65.8996C42.2743 63.8835 42.1149 62.5585 41.8046 61.6124C41.5294 60.7733 41.1439 60.2537 40.51 59.8148C39.7844 59.3125 38.6077 58.8327 36.5917 58.3979C35.2314 58.1045 34.3666 56.764 34.6599 55.4037ZM68.5338 58.6226C69.9253 58.6226 71.0533 59.7506 71.0533 61.1422V147.48C71.0533 148.872 69.9253 150 68.5338 150C67.1422 150 66.0142 148.872 66.0142 147.48V61.1422C66.0142 59.7506 67.1422 58.6226 68.5338 58.6226ZM94.5686 61.1422C94.5686 59.7506 93.4405 58.6226 92.049 58.6226C90.6574 58.6226 89.5294 59.7506 89.5294 61.1422V142.441C89.5294 143.833 90.6574 144.961 92.049 144.961C93.4405 144.961 94.5686 143.833 94.5686 142.441V61.1422ZM122.783 53.472C124.144 53.1786 125.484 54.0435 125.778 55.4037C126.071 56.764 125.206 58.1045 123.846 58.3979C121.83 58.8327 120.653 59.3125 119.928 59.8149C119.294 60.2537 118.908 60.7733 118.633 61.6124C118.323 62.5585 118.163 63.8835 118.109 65.8996C118.074 67.203 118.084 68.6576 118.095 70.3607V70.3613V70.3622V70.3632V70.3643V70.3655C118.101 71.2985 118.108 72.3061 118.108 73.4042V125.812C118.108 127.203 116.98 128.331 115.588 128.331C114.197 128.331 113.068 127.203 113.068 125.812V73.4042C113.068 72.3986 113.062 71.4335 113.056 70.5148C113.045 68.7457 113.035 67.1485 113.072 65.7649C113.128 63.6604 113.294 61.7204 113.845 60.0419C114.43 58.2564 115.441 56.7919 117.059 55.6717C118.585 54.6151 120.516 53.961 122.783 53.472ZM118.085 135.89C118.085 134.498 116.957 133.37 115.565 133.37C114.174 133.37 113.046 134.498 113.046 135.89V138.242C113.046 139.633 114.174 140.761 115.565 140.761C116.957 140.761 118.085 139.633 118.085 138.242V135.89Z" fill="#878787"/>
</svg>
