<svg width="725" height="926" viewBox="0 0 725 926" fill="none" xmlns="http://www.w3.org/2000/svg">
<path fill-rule="evenodd" clip-rule="evenodd" d="M454.374 169.671C454.374 169.671 497.511 109.279 497.511 -0.000244141C431.368 37.3849 385.355 46.0122 316.337 46.0122V46.1161C247.924 45.9772 201.912 37.1702 136 8.78213e-05C136 109.529 179.334 170.059 179.334 170.059C252.219 196.03 306.34 275.826 316.337 291.363V293.329C316.337 293.329 316.546 292.985 316.956 292.331C317.647 293.418 318 294 318 294V290.686C327.971 275.156 381.838 195.576 454.374 169.671ZM316.335 529.143C381.12 475.927 429.151 426.434 448.446 259.347C494.441 365.743 475.103 476.976 402.609 580.906C533.387 644.041 671.236 595.797 724.672 567.86C722.417 766.04 561.062 926 362.348 926C162.228 926 -0.000488281 763.771 -0.000488281 563.652C-0.000488281 430.234 72.106 313.659 179.474 250.769C195.642 389.413 240.363 484.453 316.335 529.143Z" fill="#E8E1E1"/>
</svg>
