<svg width="145" height="138" viewBox="0 0 145 138" fill="none" xmlns="http://www.w3.org/2000/svg">
<path fill-rule="evenodd" clip-rule="evenodd" d="M111.272 7.90475C109.322 8.93077 108.089 10.1526 107.121 11.1213C105.949 12.2929 104.05 12.2929 102.878 11.1213C101.706 9.94975 101.706 8.05025 102.878 6.87868L102.903 6.85358C103.938 5.81869 105.699 4.05734 108.477 2.59525C111.297 1.11113 115.029 0 119.999 0C133.471 0 144.999 10.1637 144.999 24C144.999 29.6296 143.049 36.0363 139.117 41.0918C135.127 46.2227 129.045 50 120.999 50C119.342 50 117.999 48.6569 117.999 47C117.999 45.3431 119.342 44 120.999 44C126.954 44 131.372 41.2773 134.381 37.4082C137.449 33.4637 138.999 28.3704 138.999 24C138.999 13.8363 130.528 6 119.999 6C115.97 6 113.202 6.88887 111.272 7.90475ZM41.4789 48.1171C44.0725 50.6322 46.1372 53.2463 47.5144 55.365C48.4173 56.7542 48.0232 58.6123 46.634 59.5153C45.2448 60.4183 43.3867 60.0241 42.4837 58.6349C40.4942 55.5742 36.7293 51.2147 32.0578 48.2274C28.3412 45.8507 24.3001 44.4831 20.1735 45.0251C20.9781 46.7676 21.5062 47.7323 22.2397 49.0724L22.2398 49.0724L22.2398 49.0725L22.2398 49.0725L22.2398 49.0726C22.9947 50.4515 23.9671 52.2279 25.6823 55.6583C26.1695 56.6328 26.0902 57.7949 25.4749 58.694L12.4749 77.694C11.9158 78.5113 10.9893 79 9.99902 79H5.99902V101.337L28.589 115.456C29.1651 115.816 29.6019 116.361 29.828 117.002L35.1216 132H47.7361L49.1145 127.176C49.4824 125.888 50.6596 125 51.999 125H82.999C84.3385 125 85.5156 125.888 85.8836 127.176L87.2619 132H99.7361L105.114 113.176C105.26 112.666 105.539 112.203 105.921 111.836C109.747 108.163 114.778 101.176 117.126 92.4227C119.448 83.7697 119.159 73.3912 112.45 62.5821C111.576 61.1744 112.009 59.3248 113.417 58.4511C114.825 57.5773 116.674 58.0102 117.548 59.4179C125.239 71.8088 125.617 83.9303 122.922 93.9773C120.368 103.494 115.068 111.15 110.667 115.584L104.884 135.824C104.516 137.112 103.338 138 101.999 138H84.999C83.6596 138 82.4824 137.112 82.1144 135.824L80.7361 131H54.2619L52.8836 135.824C52.5156 137.112 51.3385 138 49.999 138H32.999C31.7271 138 30.5934 137.198 30.1701 135.998L24.5193 119.988L1.40903 105.544C0.531883 104.996 -0.000976562 104.034 -0.000976562 103V76C-0.000976562 74.3431 1.34217 73 2.99902 73H8.41665L19.5219 56.7692C18.4739 54.7147 17.7354 53.3566 17.1058 52.1987C15.8921 49.9665 15.0832 48.479 13.2416 44.1817C12.9187 43.4284 12.9181 42.5757 13.24 41.8219C13.5619 41.0681 14.1782 40.4788 14.9457 40.191C22.5479 37.3401 29.7235 39.6128 35.2902 43.1726C35.7942 43.4948 36.2881 43.8294 36.7715 44.1742C40.1294 41.4389 44.206 39.4485 47.9744 38.0398C52.5183 36.3413 56.8883 35.3883 59.6033 35.0263C61.2456 34.8073 62.7545 35.9611 62.9735 37.6034C63.1924 39.2458 62.0386 40.7546 60.3963 40.9736C58.1112 41.2783 54.1812 42.1252 50.0752 43.66C46.9959 44.811 43.9673 46.2939 41.4789 48.1171ZM90.999 55C100.94 55 108.999 46.9411 108.999 37C108.999 27.0589 100.94 19 90.999 19C81.0579 19 72.999 27.0589 72.999 37C72.999 46.9411 81.0579 55 90.999 55ZM90.999 61C104.254 61 114.999 50.2548 114.999 37C114.999 23.7452 104.254 13 90.999 13C77.7442 13 66.999 23.7452 66.999 37C66.999 50.2548 77.7442 61 90.999 61ZM29.9992 79C32.7606 79 34.9992 76.7615 34.9992 74C34.9992 71.2386 32.7606 69 29.9992 69C27.2378 69 24.9992 71.2386 24.9992 74C24.9992 76.7615 27.2378 79 29.9992 79Z" fill="#878787"/>
</svg>
